<mxfile host="app.diagrams.net" agent="Mozilla/5.0 (X11; Linux x86_64; rv:132.0) Gecko/20100101 Firefox/132.0" version="26.0.14">
  <diagram name="Page-1" id="e7e014a7-5840-1c2e-5031-d8a46d1fe8dd">
    <mxGraphModel dx="3218" dy="1955" grid="1" gridSize="10" guides="1" tooltips="1" connect="1" arrows="1" fold="1" page="1" pageScale="1" pageWidth="1169" pageHeight="826" background="none" math="0" shadow="0">
      <root>
        <mxCell id="0" />
        <mxCell id="1" parent="0" />
        <mxCell id="U5L8bIT946rRlEJdHNtD-132" style="edgeStyle=orthogonalEdgeStyle;rounded=0;orthogonalLoop=1;jettySize=auto;html=1;exitX=0.5;exitY=0;exitDx=0;exitDy=0;entryX=0.5;entryY=1;entryDx=0;entryDy=0;endArrow=block;endFill=0;dashed=1;" parent="1" source="U5L8bIT946rRlEJdHNtD-73" target="U5L8bIT946rRlEJdHNtD-166" edge="1">
          <mxGeometry relative="1" as="geometry">
            <mxPoint x="570" y="-180" as="targetPoint" />
          </mxGeometry>
        </mxCell>
        <mxCell id="U5L8bIT946rRlEJdHNtD-73" value="Car" style="swimlane;fontStyle=1;align=center;verticalAlign=top;childLayout=stackLayout;horizontal=1;startSize=26;horizontalStack=0;resizeParent=1;resizeParentMax=0;resizeLast=0;collapsible=1;marginBottom=0;whiteSpace=wrap;html=1;" parent="1" vertex="1">
          <mxGeometry x="440" y="-30" width="260" height="258" as="geometry" />
        </mxCell>
        <mxCell id="U5L8bIT946rRlEJdHNtD-74" value="&lt;div&gt;+ currentSpeed: double&lt;/div&gt;&lt;div&gt;+ enginePower: double&lt;/div&gt;&lt;div&gt;+ carSize: int&lt;div&gt;&lt;/div&gt;&lt;div&gt;+ position: double[]&lt;/div&gt;&lt;div&gt;+ direction: double[]&lt;div&gt;+ movementHindrances: Set&amp;lt;String&amp;gt;&lt;/div&gt;&lt;/div&gt;&lt;/div&gt;" style="text;strokeColor=none;fillColor=none;align=left;verticalAlign=top;spacingLeft=4;spacingRight=4;overflow=hidden;rotatable=0;points=[[0,0.5],[1,0.5]];portConstraint=eastwest;whiteSpace=wrap;html=1;" parent="U5L8bIT946rRlEJdHNtD-73" vertex="1">
          <mxGeometry y="26" width="260" height="94" as="geometry" />
        </mxCell>
        <mxCell id="U5L8bIT946rRlEJdHNtD-75" value="" style="line;strokeWidth=1;fillColor=none;align=left;verticalAlign=middle;spacingTop=-1;spacingLeft=3;spacingRight=3;rotatable=0;labelPosition=right;points=[];portConstraint=eastwest;strokeColor=inherit;" parent="U5L8bIT946rRlEJdHNtD-73" vertex="1">
          <mxGeometry y="120" width="260" height="8" as="geometry" />
        </mxCell>
        <mxCell id="U5L8bIT946rRlEJdHNtD-76" value="&lt;div&gt;+ addMovementHindrance(String): void&lt;/div&gt;&lt;div&gt;&lt;div&gt;+ removeMovementHindrance(String): void&lt;br&gt;&lt;div&gt;+ move(): void&lt;/div&gt;&lt;div&gt;&lt;div&gt;+ gas(double): void&lt;/div&gt;&lt;div&gt;&lt;div&gt;+ break(double): void&lt;/div&gt;&lt;div&gt;+ turnLeft(): void&lt;/div&gt;&lt;div&gt;+ turnRight(): void&lt;/div&gt;&lt;/div&gt;+ speedFactor(): double&lt;/div&gt;&lt;/div&gt;&lt;/div&gt;" style="text;strokeColor=none;fillColor=none;align=left;verticalAlign=top;spacingLeft=4;spacingRight=4;overflow=hidden;rotatable=0;points=[[0,0.5],[1,0.5]];portConstraint=eastwest;whiteSpace=wrap;html=1;" parent="U5L8bIT946rRlEJdHNtD-73" vertex="1">
          <mxGeometry y="128" width="260" height="130" as="geometry" />
        </mxCell>
        <mxCell id="U5L8bIT946rRlEJdHNtD-144" style="edgeStyle=orthogonalEdgeStyle;rounded=0;orthogonalLoop=1;jettySize=auto;html=1;exitX=1;exitY=0.5;exitDx=0;exitDy=0;entryX=0;entryY=0.5;entryDx=0;entryDy=0;endArrow=open;endFill=0;dashed=1;" parent="1" source="U5L8bIT946rRlEJdHNtD-78" target="U5L8bIT946rRlEJdHNtD-74" edge="1">
          <mxGeometry relative="1" as="geometry" />
        </mxCell>
        <mxCell id="gGL1FDJAf9ieCwToNdoj-5" style="edgeStyle=orthogonalEdgeStyle;rounded=0;orthogonalLoop=1;jettySize=auto;html=1;exitX=0.25;exitY=1;exitDx=0;exitDy=0;entryX=0.25;entryY=0;entryDx=0;entryDy=0;dashed=1;endArrow=open;endFill=0;" edge="1" parent="1" source="U5L8bIT946rRlEJdHNtD-78" target="U5L8bIT946rRlEJdHNtD-90">
          <mxGeometry relative="1" as="geometry" />
        </mxCell>
        <mxCell id="U5L8bIT946rRlEJdHNtD-78" value="&lt;div&gt;CarController&lt;/div&gt;" style="swimlane;fontStyle=1;align=center;verticalAlign=top;childLayout=stackLayout;horizontal=1;startSize=26;horizontalStack=0;resizeParent=1;resizeParentMax=0;resizeLast=0;collapsible=1;marginBottom=0;whiteSpace=wrap;html=1;" parent="1" vertex="1">
          <mxGeometry x="10" y="-100" width="160" height="218" as="geometry" />
        </mxCell>
        <mxCell id="U5L8bIT946rRlEJdHNtD-79" value="&lt;div&gt;+ timer: Timer&lt;/div&gt;&lt;div&gt;+ frame: CarView&lt;/div&gt;&lt;div&gt;+ cars: ArrayList&amp;lt;Car&amp;gt;&lt;/div&gt;" style="text;strokeColor=none;fillColor=none;align=left;verticalAlign=top;spacingLeft=4;spacingRight=4;overflow=hidden;rotatable=0;points=[[0,0.5],[1,0.5]];portConstraint=eastwest;whiteSpace=wrap;html=1;" parent="U5L8bIT946rRlEJdHNtD-78" vertex="1">
          <mxGeometry y="26" width="160" height="54" as="geometry" />
        </mxCell>
        <mxCell id="U5L8bIT946rRlEJdHNtD-80" value="" style="line;strokeWidth=1;fillColor=none;align=left;verticalAlign=middle;spacingTop=-1;spacingLeft=3;spacingRight=3;rotatable=0;labelPosition=right;points=[];portConstraint=eastwest;strokeColor=inherit;" parent="U5L8bIT946rRlEJdHNtD-78" vertex="1">
          <mxGeometry y="80" width="160" height="8" as="geometry" />
        </mxCell>
        <mxCell id="U5L8bIT946rRlEJdHNtD-81" value="&lt;div&gt;+ gas(double): void&lt;/div&gt;&lt;div&gt;+ brake(double): void&lt;/div&gt;&lt;div&gt;+ turboOn(boolean): void&lt;/div&gt;&lt;div&gt;+ turboOff(boolean): void&lt;/div&gt;&lt;div&gt;+ raiseBed(): void&lt;/div&gt;&lt;div&gt;+ lowerBed(): void&lt;/div&gt;&lt;div&gt;+ startCars(): void&lt;/div&gt;&lt;div&gt;+ stopCars(): void&lt;/div&gt;" style="text;strokeColor=none;fillColor=none;align=left;verticalAlign=top;spacingLeft=4;spacingRight=4;overflow=hidden;rotatable=0;points=[[0,0.5],[1,0.5]];portConstraint=eastwest;whiteSpace=wrap;html=1;" parent="U5L8bIT946rRlEJdHNtD-78" vertex="1">
          <mxGeometry y="88" width="160" height="130" as="geometry" />
        </mxCell>
        <mxCell id="U5L8bIT946rRlEJdHNtD-142" style="edgeStyle=orthogonalEdgeStyle;rounded=0;orthogonalLoop=1;jettySize=auto;html=1;exitX=0.5;exitY=0;exitDx=0;exitDy=0;entryX=1;entryY=0.5;entryDx=0;entryDy=0;endArrow=open;endFill=0;" parent="1" source="U5L8bIT946rRlEJdHNtD-86" target="U5L8bIT946rRlEJdHNtD-134" edge="1">
          <mxGeometry relative="1" as="geometry" />
        </mxCell>
        <mxCell id="U5L8bIT946rRlEJdHNtD-146" style="edgeStyle=orthogonalEdgeStyle;rounded=0;orthogonalLoop=1;jettySize=auto;html=1;exitX=0.75;exitY=0;exitDx=0;exitDy=0;entryX=1;entryY=0.5;entryDx=0;entryDy=0;endArrow=open;endFill=0;dashed=1;" parent="1" source="U5L8bIT946rRlEJdHNtD-86" target="U5L8bIT946rRlEJdHNtD-76" edge="1">
          <mxGeometry relative="1" as="geometry" />
        </mxCell>
        <mxCell id="U5L8bIT946rRlEJdHNtD-86" value="CarTransport" style="swimlane;fontStyle=1;align=center;verticalAlign=top;childLayout=stackLayout;horizontal=1;startSize=26;horizontalStack=0;resizeParent=1;resizeParentMax=0;resizeLast=0;collapsible=1;marginBottom=0;whiteSpace=wrap;html=1;" parent="1" vertex="1">
          <mxGeometry x="1000" y="480" width="190" height="310" as="geometry" />
        </mxCell>
        <mxCell id="U5L8bIT946rRlEJdHNtD-87" value="&lt;div&gt;+ parent: Truck&lt;/div&gt;&lt;div&gt;+ carStack: Stack&amp;lt;Car&amp;gt;&lt;/div&gt;&lt;div&gt;+ carStackSize: int&lt;/div&gt;&lt;div&gt;+ maxCarSize: int&lt;/div&gt;" style="text;strokeColor=none;fillColor=none;align=left;verticalAlign=top;spacingLeft=4;spacingRight=4;overflow=hidden;rotatable=0;points=[[0,0.5],[1,0.5]];portConstraint=eastwest;whiteSpace=wrap;html=1;" parent="U5L8bIT946rRlEJdHNtD-86" vertex="1">
          <mxGeometry y="26" width="190" height="64" as="geometry" />
        </mxCell>
        <mxCell id="U5L8bIT946rRlEJdHNtD-88" value="" style="line;strokeWidth=1;fillColor=none;align=left;verticalAlign=middle;spacingTop=-1;spacingLeft=3;spacingRight=3;rotatable=0;labelPosition=right;points=[];portConstraint=eastwest;strokeColor=inherit;" parent="U5L8bIT946rRlEJdHNtD-86" vertex="1">
          <mxGeometry y="90" width="190" height="8" as="geometry" />
        </mxCell>
        <mxCell id="U5L8bIT946rRlEJdHNtD-89" value="&lt;div&gt;+ startEngine(): void&lt;/div&gt;&lt;div&gt;+ gas(double): void&lt;/div&gt;&lt;div&gt;+ brake(double): void&lt;/div&gt;&lt;div&gt;+ getPosition(): double[]&lt;/div&gt;&lt;div&gt;&lt;div&gt;&lt;/div&gt;&lt;div&gt;+ getDirection(): double[]&lt;/div&gt;&lt;div&gt;&lt;div&gt;&lt;/div&gt;&lt;div&gt;+ getCurrentSpeed(): double&lt;/div&gt;&lt;div&gt;&lt;div&gt;&lt;/div&gt;&lt;div&gt;+ setPosition(double[]): void&lt;/div&gt;+ getMaxCarSize(): int&lt;/div&gt;&lt;div&gt;+ openRamp(): void&lt;/div&gt;&lt;div&gt;+ closeRamp(): void&lt;/div&gt;&lt;div&gt;+ isRampOpen(): boolean&lt;/div&gt;&lt;div&gt;+ loadCar(Car): Boolean&lt;/div&gt;&lt;div&gt;+ unloadCar(): Car&lt;/div&gt;&lt;div&gt;+ move(): void&lt;/div&gt;&lt;/div&gt;&lt;/div&gt;" style="text;strokeColor=none;fillColor=none;align=left;verticalAlign=top;spacingLeft=4;spacingRight=4;overflow=hidden;rotatable=0;points=[[0,0.5],[1,0.5]];portConstraint=eastwest;whiteSpace=wrap;html=1;" parent="U5L8bIT946rRlEJdHNtD-86" vertex="1">
          <mxGeometry y="98" width="190" height="212" as="geometry" />
        </mxCell>
        <mxCell id="U5L8bIT946rRlEJdHNtD-145" style="edgeStyle=orthogonalEdgeStyle;rounded=0;orthogonalLoop=1;jettySize=auto;html=1;exitX=0.5;exitY=0;exitDx=0;exitDy=0;entryX=0.5;entryY=1;entryDx=0;entryDy=0;endArrow=open;endFill=0;dashed=1;" parent="1" source="U5L8bIT946rRlEJdHNtD-90" target="U5L8bIT946rRlEJdHNtD-78" edge="1">
          <mxGeometry relative="1" as="geometry" />
        </mxCell>
        <mxCell id="gGL1FDJAf9ieCwToNdoj-7" style="edgeStyle=orthogonalEdgeStyle;rounded=0;orthogonalLoop=1;jettySize=auto;html=1;dashed=1;endArrow=open;endFill=0;" edge="1" parent="1" source="U5L8bIT946rRlEJdHNtD-90" target="U5L8bIT946rRlEJdHNtD-98">
          <mxGeometry relative="1" as="geometry" />
        </mxCell>
        <mxCell id="U5L8bIT946rRlEJdHNtD-90" value="CarView" style="swimlane;fontStyle=1;align=center;verticalAlign=top;childLayout=stackLayout;horizontal=1;startSize=26;horizontalStack=0;resizeParent=1;resizeParentMax=0;resizeLast=0;collapsible=1;marginBottom=0;whiteSpace=wrap;html=1;" parent="1" vertex="1">
          <mxGeometry y="240" width="180" height="160" as="geometry" />
        </mxCell>
        <mxCell id="U5L8bIT946rRlEJdHNtD-91" value="&lt;div&gt;+ carC: CarController&lt;/div&gt;&lt;div&gt;+ drawPanel: DrawPanel&lt;/div&gt;&lt;div&gt;+ controlPanel: JPanel&lt;/div&gt;&lt;div&gt;&lt;div&gt;+ gasPanel: JPanel&lt;/div&gt;&lt;div&gt;&lt;div&gt;+ gasSpinner: JSpinner&lt;/div&gt;&lt;br&gt;&lt;/div&gt;&lt;/div&gt;" style="text;strokeColor=none;fillColor=none;align=left;verticalAlign=top;spacingLeft=4;spacingRight=4;overflow=hidden;rotatable=0;points=[[0,0.5],[1,0.5]];portConstraint=eastwest;whiteSpace=wrap;html=1;" parent="U5L8bIT946rRlEJdHNtD-90" vertex="1">
          <mxGeometry y="26" width="180" height="84" as="geometry" />
        </mxCell>
        <mxCell id="U5L8bIT946rRlEJdHNtD-92" value="" style="line;strokeWidth=1;fillColor=none;align=left;verticalAlign=middle;spacingTop=-1;spacingLeft=3;spacingRight=3;rotatable=0;labelPosition=right;points=[];portConstraint=eastwest;strokeColor=inherit;" parent="U5L8bIT946rRlEJdHNtD-90" vertex="1">
          <mxGeometry y="110" width="180" height="8" as="geometry" />
        </mxCell>
        <mxCell id="U5L8bIT946rRlEJdHNtD-93" value="&lt;div&gt;+ initComponents(String): void&lt;/div&gt;" style="text;strokeColor=none;fillColor=none;align=left;verticalAlign=top;spacingLeft=4;spacingRight=4;overflow=hidden;rotatable=0;points=[[0,0.5],[1,0.5]];portConstraint=eastwest;whiteSpace=wrap;html=1;" parent="U5L8bIT946rRlEJdHNtD-90" vertex="1">
          <mxGeometry y="118" width="180" height="42" as="geometry" />
        </mxCell>
        <mxCell id="U5L8bIT946rRlEJdHNtD-143" style="edgeStyle=orthogonalEdgeStyle;rounded=0;orthogonalLoop=1;jettySize=auto;html=1;exitX=0.5;exitY=0;exitDx=0;exitDy=0;entryX=0;entryY=0.5;entryDx=0;entryDy=0;endArrow=open;endFill=0;dashed=1;" parent="1" source="U5L8bIT946rRlEJdHNtD-94" target="U5L8bIT946rRlEJdHNtD-76" edge="1">
          <mxGeometry relative="1" as="geometry">
            <mxPoint x="480" y="180" as="targetPoint" />
          </mxGeometry>
        </mxCell>
        <mxCell id="U5L8bIT946rRlEJdHNtD-94" value="CarWorkshop" style="swimlane;fontStyle=1;align=center;verticalAlign=top;childLayout=stackLayout;horizontal=1;startSize=26;horizontalStack=0;resizeParent=1;resizeParentMax=0;resizeLast=0;collapsible=1;marginBottom=0;whiteSpace=wrap;html=1;" parent="1" vertex="1">
          <mxGeometry x="210" y="240" width="160" height="100" as="geometry" />
        </mxCell>
        <mxCell id="U5L8bIT946rRlEJdHNtD-95" value="&lt;div&gt;+ cars: ArrayList&amp;lt;T&amp;gt;&lt;/div&gt;" style="text;strokeColor=none;fillColor=none;align=left;verticalAlign=top;spacingLeft=4;spacingRight=4;overflow=hidden;rotatable=0;points=[[0,0.5],[1,0.5]];portConstraint=eastwest;whiteSpace=wrap;html=1;" parent="U5L8bIT946rRlEJdHNtD-94" vertex="1">
          <mxGeometry y="26" width="160" height="24" as="geometry" />
        </mxCell>
        <mxCell id="U5L8bIT946rRlEJdHNtD-96" value="" style="line;strokeWidth=1;fillColor=none;align=left;verticalAlign=middle;spacingTop=-1;spacingLeft=3;spacingRight=3;rotatable=0;labelPosition=right;points=[];portConstraint=eastwest;strokeColor=inherit;" parent="U5L8bIT946rRlEJdHNtD-94" vertex="1">
          <mxGeometry y="50" width="160" height="8" as="geometry" />
        </mxCell>
        <mxCell id="U5L8bIT946rRlEJdHNtD-97" value="&lt;div&gt;+ addCar(T): void&lt;/div&gt;&lt;div&gt;+ removeCar(T): T&lt;/div&gt;" style="text;strokeColor=none;fillColor=none;align=left;verticalAlign=top;spacingLeft=4;spacingRight=4;overflow=hidden;rotatable=0;points=[[0,0.5],[1,0.5]];portConstraint=eastwest;whiteSpace=wrap;html=1;" parent="U5L8bIT946rRlEJdHNtD-94" vertex="1">
          <mxGeometry y="58" width="160" height="42" as="geometry" />
        </mxCell>
        <mxCell id="U5L8bIT946rRlEJdHNtD-98" value="DrawPanel" style="swimlane;fontStyle=1;align=center;verticalAlign=top;childLayout=stackLayout;horizontal=1;startSize=26;horizontalStack=0;resizeParent=1;resizeParentMax=0;resizeLast=0;collapsible=1;marginBottom=0;whiteSpace=wrap;html=1;" parent="1" vertex="1">
          <mxGeometry x="-15" y="470" width="210" height="130" as="geometry" />
        </mxCell>
        <mxCell id="U5L8bIT946rRlEJdHNtD-99" value="&lt;div&gt;+ carImages: BufferedImage[]&lt;/div&gt;&lt;div&gt;+ carPoints: Points[]&lt;/div&gt;" style="text;strokeColor=none;fillColor=none;align=left;verticalAlign=top;spacingLeft=4;spacingRight=4;overflow=hidden;rotatable=0;points=[[0,0.5],[1,0.5]];portConstraint=eastwest;whiteSpace=wrap;html=1;" parent="U5L8bIT946rRlEJdHNtD-98" vertex="1">
          <mxGeometry y="26" width="210" height="44" as="geometry" />
        </mxCell>
        <mxCell id="U5L8bIT946rRlEJdHNtD-100" value="" style="line;strokeWidth=1;fillColor=none;align=left;verticalAlign=middle;spacingTop=-1;spacingLeft=3;spacingRight=3;rotatable=0;labelPosition=right;points=[];portConstraint=eastwest;strokeColor=inherit;" parent="U5L8bIT946rRlEJdHNtD-98" vertex="1">
          <mxGeometry y="70" width="210" height="8" as="geometry" />
        </mxCell>
        <mxCell id="U5L8bIT946rRlEJdHNtD-101" value="&lt;div&gt;+ moveit(int, int, int): void&lt;/div&gt;&lt;div&gt;+ drawPanel(int. int): void&lt;/div&gt;&lt;div&gt;+ paintComponent(Graphics): void&lt;/div&gt;" style="text;strokeColor=none;fillColor=none;align=left;verticalAlign=top;spacingLeft=4;spacingRight=4;overflow=hidden;rotatable=0;points=[[0,0.5],[1,0.5]];portConstraint=eastwest;whiteSpace=wrap;html=1;" parent="U5L8bIT946rRlEJdHNtD-98" vertex="1">
          <mxGeometry y="78" width="210" height="52" as="geometry" />
        </mxCell>
        <mxCell id="U5L8bIT946rRlEJdHNtD-130" style="edgeStyle=orthogonalEdgeStyle;rounded=0;orthogonalLoop=1;jettySize=auto;html=1;exitX=0.5;exitY=0;exitDx=0;exitDy=0;entryX=0.5;entryY=1;entryDx=0;entryDy=0;endArrow=block;endFill=0;" parent="1" source="U5L8bIT946rRlEJdHNtD-103" target="U5L8bIT946rRlEJdHNtD-115" edge="1">
          <mxGeometry relative="1" as="geometry" />
        </mxCell>
        <mxCell id="U5L8bIT946rRlEJdHNtD-103" value="Saab95" style="swimlane;fontStyle=1;align=center;verticalAlign=top;childLayout=stackLayout;horizontal=1;startSize=26;horizontalStack=0;resizeParent=1;resizeParentMax=0;resizeLast=0;collapsible=1;marginBottom=0;whiteSpace=wrap;html=1;" parent="1" vertex="1" collapsed="1">
          <mxGeometry x="440" y="450" width="80" height="30" as="geometry">
            <mxRectangle x="400" y="360" width="160" height="86" as="alternateBounds" />
          </mxGeometry>
        </mxCell>
        <mxCell id="U5L8bIT946rRlEJdHNtD-104" value="+ field: type" style="text;strokeColor=none;fillColor=none;align=left;verticalAlign=top;spacingLeft=4;spacingRight=4;overflow=hidden;rotatable=0;points=[[0,0.5],[1,0.5]];portConstraint=eastwest;whiteSpace=wrap;html=1;" parent="U5L8bIT946rRlEJdHNtD-103" vertex="1">
          <mxGeometry y="26" width="160" height="26" as="geometry" />
        </mxCell>
        <mxCell id="U5L8bIT946rRlEJdHNtD-105" value="" style="line;strokeWidth=1;fillColor=none;align=left;verticalAlign=middle;spacingTop=-1;spacingLeft=3;spacingRight=3;rotatable=0;labelPosition=right;points=[];portConstraint=eastwest;strokeColor=inherit;" parent="U5L8bIT946rRlEJdHNtD-103" vertex="1">
          <mxGeometry y="52" width="160" height="8" as="geometry" />
        </mxCell>
        <mxCell id="U5L8bIT946rRlEJdHNtD-106" value="+ method(type): type" style="text;strokeColor=none;fillColor=none;align=left;verticalAlign=top;spacingLeft=4;spacingRight=4;overflow=hidden;rotatable=0;points=[[0,0.5],[1,0.5]];portConstraint=eastwest;whiteSpace=wrap;html=1;" parent="U5L8bIT946rRlEJdHNtD-103" vertex="1">
          <mxGeometry y="60" width="160" height="26" as="geometry" />
        </mxCell>
        <mxCell id="U5L8bIT946rRlEJdHNtD-140" style="edgeStyle=orthogonalEdgeStyle;rounded=0;orthogonalLoop=1;jettySize=auto;html=1;exitX=0.5;exitY=0;exitDx=0;exitDy=0;entryX=0.5;entryY=1;entryDx=0;entryDy=0;endArrow=block;endFill=0;" parent="1" source="U5L8bIT946rRlEJdHNtD-107" target="U5L8bIT946rRlEJdHNtD-134" edge="1">
          <mxGeometry relative="1" as="geometry" />
        </mxCell>
        <mxCell id="U5L8bIT946rRlEJdHNtD-107" value="Scania" style="swimlane;fontStyle=1;align=center;verticalAlign=top;childLayout=stackLayout;horizontal=1;startSize=26;horizontalStack=0;resizeParent=1;resizeParentMax=0;resizeLast=0;collapsible=1;marginBottom=0;whiteSpace=wrap;html=1;" parent="1" vertex="1" collapsed="1">
          <mxGeometry x="855" y="500" width="80" height="30" as="geometry">
            <mxRectangle x="800" y="480" width="160" height="86" as="alternateBounds" />
          </mxGeometry>
        </mxCell>
        <mxCell id="U5L8bIT946rRlEJdHNtD-108" value="+ field: type" style="text;strokeColor=none;fillColor=none;align=left;verticalAlign=top;spacingLeft=4;spacingRight=4;overflow=hidden;rotatable=0;points=[[0,0.5],[1,0.5]];portConstraint=eastwest;whiteSpace=wrap;html=1;" parent="U5L8bIT946rRlEJdHNtD-107" vertex="1">
          <mxGeometry y="26" width="160" height="26" as="geometry" />
        </mxCell>
        <mxCell id="U5L8bIT946rRlEJdHNtD-109" value="" style="line;strokeWidth=1;fillColor=none;align=left;verticalAlign=middle;spacingTop=-1;spacingLeft=3;spacingRight=3;rotatable=0;labelPosition=right;points=[];portConstraint=eastwest;strokeColor=inherit;" parent="U5L8bIT946rRlEJdHNtD-107" vertex="1">
          <mxGeometry y="52" width="160" height="8" as="geometry" />
        </mxCell>
        <mxCell id="U5L8bIT946rRlEJdHNtD-110" value="+ method(type): type" style="text;strokeColor=none;fillColor=none;align=left;verticalAlign=top;spacingLeft=4;spacingRight=4;overflow=hidden;rotatable=0;points=[[0,0.5],[1,0.5]];portConstraint=eastwest;whiteSpace=wrap;html=1;" parent="U5L8bIT946rRlEJdHNtD-107" vertex="1">
          <mxGeometry y="60" width="160" height="26" as="geometry" />
        </mxCell>
        <mxCell id="U5L8bIT946rRlEJdHNtD-128" style="edgeStyle=orthogonalEdgeStyle;rounded=0;orthogonalLoop=1;jettySize=auto;html=1;exitX=0.5;exitY=0;exitDx=0;exitDy=0;entryX=0.75;entryY=1;entryDx=0;entryDy=0;endArrow=block;endFill=0;" parent="1" source="U5L8bIT946rRlEJdHNtD-111" target="U5L8bIT946rRlEJdHNtD-73" edge="1">
          <mxGeometry relative="1" as="geometry" />
        </mxCell>
        <mxCell id="U5L8bIT946rRlEJdHNtD-111" value="TrimCar" style="swimlane;fontStyle=1;align=center;verticalAlign=top;childLayout=stackLayout;horizontal=1;startSize=26;horizontalStack=0;resizeParent=1;resizeParentMax=0;resizeLast=0;collapsible=1;marginBottom=0;whiteSpace=wrap;html=1;" parent="1" vertex="1">
          <mxGeometry x="600" y="260" width="160" height="86" as="geometry" />
        </mxCell>
        <mxCell id="U5L8bIT946rRlEJdHNtD-112" value="+ trimFactor: double" style="text;strokeColor=none;fillColor=none;align=left;verticalAlign=top;spacingLeft=4;spacingRight=4;overflow=hidden;rotatable=0;points=[[0,0.5],[1,0.5]];portConstraint=eastwest;whiteSpace=wrap;html=1;" parent="U5L8bIT946rRlEJdHNtD-111" vertex="1">
          <mxGeometry y="26" width="160" height="26" as="geometry" />
        </mxCell>
        <mxCell id="U5L8bIT946rRlEJdHNtD-113" value="" style="line;strokeWidth=1;fillColor=none;align=left;verticalAlign=middle;spacingTop=-1;spacingLeft=3;spacingRight=3;rotatable=0;labelPosition=right;points=[];portConstraint=eastwest;strokeColor=inherit;" parent="U5L8bIT946rRlEJdHNtD-111" vertex="1">
          <mxGeometry y="52" width="160" height="8" as="geometry" />
        </mxCell>
        <mxCell id="U5L8bIT946rRlEJdHNtD-114" value="+ speedFactor(): double" style="text;strokeColor=none;fillColor=none;align=left;verticalAlign=top;spacingLeft=4;spacingRight=4;overflow=hidden;rotatable=0;points=[[0,0.5],[1,0.5]];portConstraint=eastwest;whiteSpace=wrap;html=1;" parent="U5L8bIT946rRlEJdHNtD-111" vertex="1">
          <mxGeometry y="60" width="160" height="26" as="geometry" />
        </mxCell>
        <mxCell id="U5L8bIT946rRlEJdHNtD-129" style="edgeStyle=orthogonalEdgeStyle;rounded=0;orthogonalLoop=1;jettySize=auto;html=1;exitX=0.5;exitY=0;exitDx=0;exitDy=0;entryX=0.25;entryY=1;entryDx=0;entryDy=0;endArrow=block;endFill=0;" parent="1" source="U5L8bIT946rRlEJdHNtD-115" target="U5L8bIT946rRlEJdHNtD-73" edge="1">
          <mxGeometry relative="1" as="geometry" />
        </mxCell>
        <mxCell id="U5L8bIT946rRlEJdHNtD-115" value="TurboCar" style="swimlane;fontStyle=1;align=center;verticalAlign=top;childLayout=stackLayout;horizontal=1;startSize=26;horizontalStack=0;resizeParent=1;resizeParentMax=0;resizeLast=0;collapsible=1;marginBottom=0;whiteSpace=wrap;html=1;" parent="1" vertex="1">
          <mxGeometry x="400" y="260" width="160" height="120" as="geometry" />
        </mxCell>
        <mxCell id="U5L8bIT946rRlEJdHNtD-116" value="+ turboOn: boolean" style="text;strokeColor=none;fillColor=none;align=left;verticalAlign=top;spacingLeft=4;spacingRight=4;overflow=hidden;rotatable=0;points=[[0,0.5],[1,0.5]];portConstraint=eastwest;whiteSpace=wrap;html=1;" parent="U5L8bIT946rRlEJdHNtD-115" vertex="1">
          <mxGeometry y="26" width="160" height="26" as="geometry" />
        </mxCell>
        <mxCell id="U5L8bIT946rRlEJdHNtD-117" value="" style="line;strokeWidth=1;fillColor=none;align=left;verticalAlign=middle;spacingTop=-1;spacingLeft=3;spacingRight=3;rotatable=0;labelPosition=right;points=[];portConstraint=eastwest;strokeColor=inherit;" parent="U5L8bIT946rRlEJdHNtD-115" vertex="1">
          <mxGeometry y="52" width="160" height="8" as="geometry" />
        </mxCell>
        <mxCell id="U5L8bIT946rRlEJdHNtD-118" value="&lt;div&gt;+ setTurbonOn(): void&lt;/div&gt;&lt;div&gt;+ setTurbonOff(): void&lt;/div&gt;&lt;div&gt;+ speedFactor(): double&lt;/div&gt;" style="text;strokeColor=none;fillColor=none;align=left;verticalAlign=top;spacingLeft=4;spacingRight=4;overflow=hidden;rotatable=0;points=[[0,0.5],[1,0.5]];portConstraint=eastwest;whiteSpace=wrap;html=1;" parent="U5L8bIT946rRlEJdHNtD-115" vertex="1">
          <mxGeometry y="60" width="160" height="60" as="geometry" />
        </mxCell>
        <mxCell id="U5L8bIT946rRlEJdHNtD-133" style="edgeStyle=orthogonalEdgeStyle;rounded=0;orthogonalLoop=1;jettySize=auto;html=1;exitX=0.5;exitY=0;exitDx=0;exitDy=0;entryX=0.5;entryY=1;entryDx=0;entryDy=0;endArrow=block;endFill=0;" parent="1" source="U5L8bIT946rRlEJdHNtD-119" target="U5L8bIT946rRlEJdHNtD-111" edge="1">
          <mxGeometry relative="1" as="geometry">
            <mxPoint x="690" y="340" as="targetPoint" />
          </mxGeometry>
        </mxCell>
        <mxCell id="U5L8bIT946rRlEJdHNtD-119" value="Volvo240" style="swimlane;fontStyle=1;align=center;verticalAlign=top;childLayout=stackLayout;horizontal=1;startSize=26;horizontalStack=0;resizeParent=1;resizeParentMax=0;resizeLast=0;collapsible=1;marginBottom=0;whiteSpace=wrap;html=1;" parent="1" vertex="1" collapsed="1">
          <mxGeometry x="635" y="450" width="90" height="30" as="geometry">
            <mxRectangle x="600" y="360" width="160" height="86" as="alternateBounds" />
          </mxGeometry>
        </mxCell>
        <mxCell id="U5L8bIT946rRlEJdHNtD-120" value="+ field: type" style="text;strokeColor=none;fillColor=none;align=left;verticalAlign=top;spacingLeft=4;spacingRight=4;overflow=hidden;rotatable=0;points=[[0,0.5],[1,0.5]];portConstraint=eastwest;whiteSpace=wrap;html=1;" parent="U5L8bIT946rRlEJdHNtD-119" vertex="1">
          <mxGeometry y="26" width="160" height="26" as="geometry" />
        </mxCell>
        <mxCell id="U5L8bIT946rRlEJdHNtD-121" value="" style="line;strokeWidth=1;fillColor=none;align=left;verticalAlign=middle;spacingTop=-1;spacingLeft=3;spacingRight=3;rotatable=0;labelPosition=right;points=[];portConstraint=eastwest;strokeColor=inherit;" parent="U5L8bIT946rRlEJdHNtD-119" vertex="1">
          <mxGeometry y="52" width="160" height="8" as="geometry" />
        </mxCell>
        <mxCell id="U5L8bIT946rRlEJdHNtD-122" value="+ method(type): type" style="text;strokeColor=none;fillColor=none;align=left;verticalAlign=top;spacingLeft=4;spacingRight=4;overflow=hidden;rotatable=0;points=[[0,0.5],[1,0.5]];portConstraint=eastwest;whiteSpace=wrap;html=1;" parent="U5L8bIT946rRlEJdHNtD-119" vertex="1">
          <mxGeometry y="60" width="160" height="26" as="geometry" />
        </mxCell>
        <mxCell id="U5L8bIT946rRlEJdHNtD-141" style="edgeStyle=orthogonalEdgeStyle;rounded=0;orthogonalLoop=1;jettySize=auto;html=1;exitX=0.5;exitY=0;exitDx=0;exitDy=0;entryX=1;entryY=0.5;entryDx=0;entryDy=0;endArrow=block;endFill=0;" parent="1" source="U5L8bIT946rRlEJdHNtD-134" target="U5L8bIT946rRlEJdHNtD-111" edge="1">
          <mxGeometry relative="1" as="geometry" />
        </mxCell>
        <mxCell id="U5L8bIT946rRlEJdHNtD-134" value="Truck" style="swimlane;fontStyle=1;align=center;verticalAlign=top;childLayout=stackLayout;horizontal=1;startSize=26;horizontalStack=0;resizeParent=1;resizeParentMax=0;resizeLast=0;collapsible=1;marginBottom=0;whiteSpace=wrap;html=1;" parent="1" vertex="1">
          <mxGeometry x="800" y="360" width="190" height="100" as="geometry" />
        </mxCell>
        <mxCell id="U5L8bIT946rRlEJdHNtD-135" value="+ cargoBedAngle: double&lt;span style=&quot;white-space: pre;&quot;&gt;&#x9;&lt;/span&gt;" style="text;strokeColor=none;fillColor=none;align=left;verticalAlign=top;spacingLeft=4;spacingRight=4;overflow=hidden;rotatable=0;points=[[0,0.5],[1,0.5]];portConstraint=eastwest;whiteSpace=wrap;html=1;" parent="U5L8bIT946rRlEJdHNtD-134" vertex="1">
          <mxGeometry y="26" width="190" height="26" as="geometry" />
        </mxCell>
        <mxCell id="U5L8bIT946rRlEJdHNtD-136" value="" style="line;strokeWidth=1;fillColor=none;align=left;verticalAlign=middle;spacingTop=-1;spacingLeft=3;spacingRight=3;rotatable=0;labelPosition=right;points=[];portConstraint=eastwest;strokeColor=inherit;" parent="U5L8bIT946rRlEJdHNtD-134" vertex="1">
          <mxGeometry y="52" width="190" height="8" as="geometry" />
        </mxCell>
        <mxCell id="U5L8bIT946rRlEJdHNtD-137" value="&lt;div&gt;+ raiseCargoBed(double): void&lt;br&gt;&lt;/div&gt;&lt;div&gt;+ lowerCargoBed(double): void&lt;/div&gt;" style="text;strokeColor=none;fillColor=none;align=left;verticalAlign=top;spacingLeft=4;spacingRight=4;overflow=hidden;rotatable=0;points=[[0,0.5],[1,0.5]];portConstraint=eastwest;whiteSpace=wrap;html=1;" parent="U5L8bIT946rRlEJdHNtD-134" vertex="1">
          <mxGeometry y="60" width="190" height="40" as="geometry" />
        </mxCell>
        <mxCell id="U5L8bIT946rRlEJdHNtD-166" value="&lt;p style=&quot;margin:0px;margin-top:4px;text-align:center;&quot;&gt;&lt;i&gt;&amp;lt;&amp;lt;Interface&amp;gt;&amp;gt;&lt;/i&gt;&lt;br&gt;&lt;b&gt;Movable&lt;/b&gt;&lt;/p&gt;&lt;hr size=&quot;1&quot; style=&quot;border-style:solid;&quot;&gt;&lt;p style=&quot;margin:0px;margin-left:4px;&quot;&gt;+ move(): void&lt;br&gt;+ turnLeft(): void&lt;br&gt;+ turnRight(): void&lt;/p&gt;" style="verticalAlign=top;align=left;overflow=fill;html=1;whiteSpace=wrap;" parent="1" vertex="1">
          <mxGeometry x="475" y="-190" width="190" height="90" as="geometry" />
        </mxCell>
        <mxCell id="gGL1FDJAf9ieCwToNdoj-8" style="edgeStyle=orthogonalEdgeStyle;rounded=0;orthogonalLoop=1;jettySize=auto;html=1;entryX=0.5;entryY=0;entryDx=0;entryDy=0;" edge="1" parent="1" source="U5L8bIT946rRlEJdHNtD-81" target="U5L8bIT946rRlEJdHNtD-103">
          <mxGeometry relative="1" as="geometry" />
        </mxCell>
        <mxCell id="gGL1FDJAf9ieCwToNdoj-9" style="edgeStyle=orthogonalEdgeStyle;rounded=0;orthogonalLoop=1;jettySize=auto;html=1;" edge="1" parent="1" source="U5L8bIT946rRlEJdHNtD-81" target="U5L8bIT946rRlEJdHNtD-111">
          <mxGeometry relative="1" as="geometry" />
        </mxCell>
        <mxCell id="gGL1FDJAf9ieCwToNdoj-10" style="edgeStyle=orthogonalEdgeStyle;rounded=0;orthogonalLoop=1;jettySize=auto;html=1;entryX=0.5;entryY=0;entryDx=0;entryDy=0;" edge="1" parent="1" source="U5L8bIT946rRlEJdHNtD-81" target="U5L8bIT946rRlEJdHNtD-134">
          <mxGeometry relative="1" as="geometry" />
        </mxCell>
      </root>
    </mxGraphModel>
  </diagram>
</mxfile>
